<?xml version="1.0" encoding="UTF-8"?> <svg xmlns="http://www.w3.org/2000/svg" xmlns:xlink="http://www.w3.org/1999/xlink" id="Layer_1" data-name="Layer 1" viewBox="0 0 1410.89 274.62"><defs><style>.cls-1{fill:#213063;}.cls-2{fill:#00d3c9;}.cls-3{fill:url(#linear-gradient);}.cls-4{fill:#00807a;}.cls-5{fill:#1d123c;}</style><linearGradient id="linear-gradient" y1="98.45" x2="222.54" y2="98.45" gradientUnits="userSpaceOnUse"><stop offset="0.24" stop-color="#00d3c9"></stop><stop offset="0.42" stop-color="#0b9ba6"></stop><stop offset="0.59" stop-color="#156d89"></stop><stop offset="0.73" stop-color="#1b4c74"></stop><stop offset="0.86" stop-color="#203768"></stop><stop offset="0.94" stop-color="#213063"></stop></linearGradient></defs><path class="cls-1" d="M353.46,151.71v36.93H246V7.77H286.2V151.71Z"></path><path class="cls-1" d="M469.37,44.71H427.59V188.64H387.34V44.71H345.55V7.77H469.37Z"></path><path class="cls-1" d="M635.71,7.77V188.64H595.46V116.55H527.19v72.09H486.94V7.77h40.25V79.36h68.27V7.77Z"></path><path class="cls-2" d="M70.51,7.77h40.36V189.14H70.51Z"></path><path class="cls-1" d="M181.82,7.77h40.73V189.14H181.82Z"></path><path class="cls-3" d="M222.54,78.27v40.37H0V78.27Z"></path><polygon class="cls-4" points="70.51 118.64 110.87 118.64 70.51 132.2 70.51 118.64"></polygon><polygon class="cls-5" points="181.82 118.64 222.19 118.64 181.82 132.13 181.82 118.64"></polygon><path class="cls-2" d="M815.05,98.24c0,49.65-33.1,89.69-91.56,89.69H669.83V8.54h53.66C783.29,8.54,815.05,48.58,815.05,98.24Zm-25.62,0c0-35.51-24.3-64.07-59.27-64.07h-34.7V162.31h34.7C765.13,162.31,789.43,133.74,789.43,98.24Z"></path><path class="cls-2" d="M838.55,19.22a19.22,19.22,0,1,1,19.22,19.22A19.14,19.14,0,0,1,838.55,19.22ZM845,59.8h25.63V187.93H845Z"></path><path class="cls-2" d="M1030.75,59.8V179.93c0,53.39-27.49,78.48-68.34,78.48a94.84,94.84,0,0,1-59.79-21.36l12.81-23c10.68,8.27,24.29,18.68,47,18.68,26.7,0,42.71-17.62,42.71-49.12V169.25c-10.41,13.61-25.36,20.82-42.71,20.82-37.37,0-64.07-29.63-64.07-66.2S925,57.66,962.41,57.66c17.35,0,32.3,7.21,42.71,20.82V59.8Zm-25.63,64.07a40.58,40.58,0,1,0-40.57,40.57A40.55,40.55,0,0,0,1005.12,123.87Z"></path><path class="cls-2" d="M1060.65,19.22a19.22,19.22,0,1,1,19.22,19.22A19.14,19.14,0,0,1,1060.65,19.22Zm6.41,40.58h25.63V187.93h-25.63Z"></path><path class="cls-2" d="M1139.67,85.42h-17.09V59.8h17.09V8.54h25.63V59.8h25.62V85.42H1165.3v53.4c0,9.07,0,18.42,5.07,22.15,6.14,4.54,14.68,2.41,20.55-.53v25.89c-5.6,2.67-11.74,3.74-19,3.74-24.29,0-32.3-19.49-32.3-44Z"></path><path class="cls-2" d="M1349,59.8V187.93h-25.63V169.25c-10.41,13.61-25.36,20.82-42.71,20.82-37.37,0-64.07-29.63-64.07-66.2s26.7-66.21,64.07-66.21c17.35,0,32.3,7.21,42.71,20.82V59.8Zm-25.63,64.07a40.58,40.58,0,1,0-40.57,40.57A40.55,40.55,0,0,0,1323.33,123.87Z"></path><path class="cls-2" d="M1410.89,0V187.93h-25.62V0Z"></path><path class="cls-1" d="M98.23,248.92c0,6.52-5.41,11.43-14.16,11.43a19,19,0,0,1-14.39-6.08l2.68-4.79A16.13,16.13,0,0,0,84.18,255c5.63,0,8.7-2.29,8.7-5.86,0-3-3.4-4.85-8.53-5.74C73.92,241.62,71,237.88,71,232.86,71,226.78,75.7,222,84.46,222a18.13,18.13,0,0,1,12.1,4.46L94,231.3a13.32,13.32,0,0,0-9.64-4c-5.13,0-8,1.95-8,5.3,0,2.9,2.56,4.24,8.47,5.41C93.71,239.78,98.23,242.62,98.23,248.92Z"></path><path class="cls-1" d="M132.13,246.52c0,7.64-5.57,13.83-13.38,13.83a10.89,10.89,0,0,1-8.92-4.35v18.18h-5.35v-41h5.35V237a10.89,10.89,0,0,1,8.92-4.35C126.56,232.69,132.13,238.88,132.13,246.52Zm-5.35,0A8.48,8.48,0,1,0,118.3,255,8.47,8.47,0,0,0,126.78,246.52Z"></path><path class="cls-1" d="M162.3,249H142.06c.84,4.18,4.46,6,8.7,6a14.17,14.17,0,0,0,8.14-2.68l1.78,4.8a15.91,15.91,0,0,1-10,3.23c-9.37,0-14.05-6.3-14.05-13.83s5.13-13.83,13.32-13.83c7.08,0,12.55,5.25,12.55,13.94A19,19,0,0,1,162.3,249Zm-5.3-4.91c-.11-2.62-2.23-6-7.3-6-4.91,0-7.53,3.4-7.64,6Z"></path><path class="cls-1" d="M181.2,232.69a13.34,13.34,0,0,1,8.92,3.07l-2.28,5a9.54,9.54,0,0,0-6.58-2.67c-5,0-9,3.84-9,8.42a8.78,8.78,0,0,0,9,8.53,9.3,9.3,0,0,0,6.58-2.74l2.28,5c-2.11,2-5.68,3.07-8.92,3.07-9,0-14.27-6.19-14.27-13.83S172.34,232.69,181.2,232.69Z"></path><path class="cls-1" d="M194.59,224.67a4,4,0,1,1,4,4A4,4,0,0,1,194.59,224.67Zm1.34,8.47h5.35V259.9h-5.35Z"></path><path class="cls-1" d="M234.73,233.14V259.9h-5.35V256a10.89,10.89,0,0,1-8.92,4.35c-7.81,0-13.38-6.19-13.38-13.83s5.57-13.83,13.38-13.83a10.89,10.89,0,0,1,8.92,4.35v-3.9Zm-5.35,13.38a8.48,8.48,0,1,0-8.47,8.48A8.47,8.47,0,0,0,229.38,246.52Z"></path><path class="cls-1" d="M247.67,220.65V259.9h-5.35V220.65Z"></path><path class="cls-1" d="M253.92,224.67a4,4,0,1,1,4,4A4,4,0,0,1,253.92,224.67Zm1.34,8.47h5.35V259.9h-5.35Z"></path><path class="cls-1" d="M288.71,251.54c0,5.3-3.73,8.81-10.7,8.81-5.91,0-10.37-2.62-11.6-3.79l2.12-5.24c2.12,2.12,6.3,3.62,9.31,3.68,3.46.05,5.52-1.23,5.52-2.85,0-2-1.95-2.78-5.24-3.4-8.75-1.56-10.82-4.12-10.82-8.42,0-4.46,4.29-7.64,10.87-7.64a21.38,21.38,0,0,1,9.71,2.57l-1.84,5a16.13,16.13,0,0,0-7.87-2.23c-2.62-.06-5.52.5-5.52,2.34,0,2,3.18,2.4,6.31,3C286.82,244.91,288.71,248.25,288.71,251.54Z"></path><path class="cls-1" d="M296.74,238.49h-3.56v-5.35h3.56v-10.7h5.36v10.7h5.35v5.35H302.1v11.15c0,1.9,0,3.85,1.06,4.63,1.28.95,3.06.5,4.29-.11v5.41a8.93,8.93,0,0,1-4,.78c-5.07,0-6.75-4.07-6.75-9.2Z"></path><path class="cls-1" d="M361,222.44V259.9h-5.35v-16H337.78v16h-5.35V222.44h5.35v16.05h17.85V222.44Z"></path><path class="cls-1" d="M392.93,249H372.69c.84,4.18,4.46,6,8.7,6a14.17,14.17,0,0,0,8.14-2.68l1.78,4.8a15.91,15.91,0,0,1-10,3.23c-9.37,0-14-6.3-14-13.83s5.13-13.83,13.32-13.83c7.08,0,12.55,5.25,12.55,13.94A19,19,0,0,1,392.93,249Zm-5.3-4.91c-.11-2.62-2.23-6-7.3-6-4.91,0-7.53,3.4-7.64,6Z"></path><path class="cls-1" d="M425.22,233.14V259.9h-5.36V256a10.88,10.88,0,0,1-8.92,4.35c-7.8,0-13.38-6.19-13.38-13.83s5.58-13.83,13.38-13.83a10.88,10.88,0,0,1,8.92,4.35v-3.9Zm-5.36,13.38a8.48,8.48,0,1,0-8.47,8.48A8.47,8.47,0,0,0,419.86,246.52Z"></path><path class="cls-1" d="M438.16,220.65V259.9H432.8V220.65Z"></path><path class="cls-1" d="M448,238.49H444.4v-5.35H448v-10.7h5.35v10.7h5.36v5.35h-5.36v11.15c0,1.9,0,3.85,1.06,4.63,1.28.95,3.07.5,4.3-.11v5.41a9,9,0,0,1-4,.78c-5.08,0-6.75-4.07-6.75-9.2Z"></path><path class="cls-1" d="M489.9,245V259.9h-5.35V245c0-4.29-1.45-6.91-6-6.91-3.24,0-7.36,2.56-7.36,7.13V259.9h-5.36V220.65h5.36v15.61a10.65,10.65,0,0,1,8.36-3.57C486.33,232.69,489.9,237,489.9,245Z"></path><path class="cls-1" d="M509.53,232.69a13.36,13.36,0,0,1,8.92,3.07l-2.29,5a9.52,9.52,0,0,0-6.57-2.67c-5,0-9,3.84-9,8.42a8.78,8.78,0,0,0,9,8.53,9.27,9.27,0,0,0,6.57-2.74l2.29,5c-2.12,2-5.69,3.07-8.92,3.07-9,0-14.27-6.19-14.27-13.83S500.66,232.69,509.53,232.69Z"></path><path class="cls-1" d="M549.68,233.14V259.9h-5.36V256a10.88,10.88,0,0,1-8.92,4.35c-7.8,0-13.38-6.19-13.38-13.83s5.58-13.83,13.38-13.83a10.88,10.88,0,0,1,8.92,4.35v-3.9Zm-5.36,13.38a8.48,8.48,0,1,0-8.47,8.48A8.47,8.47,0,0,0,544.32,246.52Z"></path><path class="cls-1" d="M573.32,232.69v5.86a8.36,8.36,0,0,0-4.91.22c-3.51,1.34-5.79,4.3-5.79,9.2V259.9h-5.36V233.14h5.36v5.74C564.46,235,568.3,232.69,573.32,232.69Z"></path><path class="cls-1" d="M601.7,249H581.46c.84,4.18,4.46,6,8.7,6a14.17,14.17,0,0,0,8.14-2.68l1.79,4.8a16,16,0,0,1-10,3.23c-9.37,0-14-6.3-14-13.83s5.13-13.83,13.33-13.83c7.08,0,12.54,5.25,12.54,13.94A19,19,0,0,1,601.7,249Zm-5.29-4.91c-.12-2.62-2.23-6-7.31-6-4.9,0-7.52,3.4-7.64,6Z"></path><path class="cls-1" d="M633.21,237.71l-3.57,22.19h-5.46l6.35-38.36,14.61,28.33,14.61-28.33,6.36,38.36h-5.47l-3.57-22.19L645.14,260.8Z"></path><path class="cls-1" d="M698.23,233.14V259.9h-5.36V256a10.88,10.88,0,0,1-8.92,4.35c-7.8,0-13.38-6.19-13.38-13.83s5.58-13.83,13.38-13.83a10.88,10.88,0,0,1,8.92,4.35v-3.9Zm-5.36,13.38A8.48,8.48,0,1,0,684.4,255,8.47,8.47,0,0,0,692.87,246.52Z"></path><path class="cls-1" d="M721.87,232.69v5.86a8.36,8.36,0,0,0-4.91.22c-3.51,1.34-5.8,4.3-5.8,9.2V259.9h-5.35V233.14h5.35v5.74C713,235,716.85,232.69,721.87,232.69Z"></path><path class="cls-1" d="M752.2,259.9h-7.13l-11.6-11.37V259.9h-5.35V220.65h5.35v23.42l10.7-10.93h7.14l-13.38,12.94Z"></path><path class="cls-1" d="M779.25,249H759c.84,4.18,4.46,6,8.7,6a14.17,14.17,0,0,0,8.14-2.68l1.78,4.8a15.94,15.94,0,0,1-10,3.23c-9.37,0-14.05-6.3-14.05-13.83s5.12-13.83,13.32-13.83c7.08,0,12.55,5.25,12.55,13.94A19,19,0,0,1,779.25,249Zm-5.3-4.91c-.11-2.62-2.23-6-7.3-6-4.91,0-7.53,3.4-7.64,6Z"></path><path class="cls-1" d="M786.56,238.49H783v-5.35h3.57v-10.7h5.35v10.7h5.35v5.35h-5.35v11.15c0,1.9,0,3.85,1.06,4.63,1.28.95,3.07.5,4.29-.11v5.41a8.93,8.93,0,0,1-4,.78c-5.07,0-6.74-4.07-6.74-9.2Z"></path><path class="cls-1" d="M803.06,224.67a4,4,0,1,1,4,4A4,4,0,0,1,803.06,224.67Zm1.34,8.47h5.35V259.9H804.4Z"></path><path class="cls-1" d="M841.42,244.51V259.9h-5.35V245c0-4.29-1.45-6.91-6-6.91-3.23,0-7.36,2.56-7.36,7.13V259.9h-5.35V233.14h5.35v3.12a10.65,10.65,0,0,1,8.36-3.57C837.41,232.69,841.42,236.6,841.42,244.51Z"></path><path class="cls-1" d="M874.43,233.14v25.09c0,11.15-5.74,16.39-14.27,16.39a19.83,19.83,0,0,1-12.49-4.46l2.68-4.79c2.23,1.73,5.07,3.9,9.81,3.9,5.58,0,8.92-3.68,8.92-10.26v-3a10.89,10.89,0,0,1-8.92,4.35c-7.81,0-13.38-6.19-13.38-13.83s5.57-13.83,13.38-13.83a10.89,10.89,0,0,1,8.92,4.35v-3.9Zm-5.35,13.38a8.48,8.48,0,1,0-8.47,8.48A8.47,8.47,0,0,0,869.08,246.52Z"></path></svg> 